<svg version="1.1" xmlns="http://www.w3.org/2000/svg" xmlns:xlink="http://www.w3.org/1999/xlink" width="152.77837" height="255.30324" viewBox="0,0,152.77837,255.30324"><g transform="translate(-163.34991,-51.97978)"><g data-paper-data="{&quot;isPaintingLayer&quot;:true}" stroke-miterlimit="10" stroke-dasharray="" stroke-dashoffset="0" style="mix-blend-mode: normal"><path d="M194.74454,220.57341l4.11796,-2.17763c0,0 -10.76659,-2.67429 -15.11109,-5.60317c-5.4605,-3.68125 -15.64428,-17.86445 -15.64428,-17.86445l6.86151,0.00687c0,0 -8.85129,-4.94856 -10.64202,-14.03765c-1.88337,-9.55928 3.90782,-19.01793 3.90782,-19.01793c0,0 3.28668,10.40076 6.71335,14.13216c2.9702,3.23435 9.2642,8.64122 9.2642,8.64122l1.0375,-7.2715c0,0 5.46649,12.15533 8.76608,16.90435c3.29615,4.74407 12.91393,12.56255 12.91393,12.56255l0.33626,-4.05351c0,0 11.81579,8.46376 18.60961,11.65768c7.10472,3.34008 23.12774,8.37948 23.12774,8.37948l0.89437,7.84864c0,0 -18.44023,0.71965 -27.18328,-0.78375c-9.56696,-1.64508 -27.96965,-9.32337 -27.96965,-9.32337z" fill="#b67c00" fill-rule="nonzero" stroke="#000000" stroke-width="1.2" stroke-linecap="butt" stroke-linejoin="miter"/><g data-paper-data="{&quot;index&quot;:null}" fill-rule="nonzero" stroke="#000000" stroke-width="1.2" stroke-linejoin="miter"><g data-paper-data="{&quot;index&quot;:null}" fill="#b67c00"><path d="M279.19428,250.81122c0,14.94473 -4.69819,27.05898 -15.40465,23.19415c-6.7682,-0.97809 -16.84203,-6.05703 -16.95738,-23.36624c-0.1264,-25.99826 9.44979,-33.44262 18.18323,-33.44262c8.73344,0 14.17882,14.15003 14.17882,33.61471z" stroke-linecap="butt"/><path d="M273.89153,263.33564c0,0 0.98399,0.70816 1.41044,2.34692c0.47319,1.81843 0.3933,7.02007 0.38477,7.78137c-0.09106,8.13043 -1.41126,31.98674 -14.8958,30.12471c-9.30858,-1.28541 -10.81419,-20.49403 -10.94582,-31.96693c-0.01879,-1.63734 0.05451,-5.61971 0.36562,-6.69666c0.50084,-1.73373 1.34252,-1.68296 1.34252,-1.68296" stroke-linecap="round"/><path d="M268.72287,300.82592c0,0 2.71254,1.82204 -0.01774,3.67299c-2.95036,2.00015 -11.40915,1.59421 -12.81521,0.24465c-1.83374,-1.76007 -0.8084,-5.54093 -0.8084,-5.54093" stroke-linecap="round"/><g stroke-linecap="round"><path d="M268.48755,300.04863c0,0 4.28432,-4.19614 4.25241,3.97773c-0.01245,3.18972 -4.53748,1.72782 -4.53748,1.72782"/><path d="M265.71598,300.06694c0,0 4.28432,-4.19614 4.25241,3.97774c-0.01246,3.18972 -4.53748,1.72782 -4.53748,1.72782"/><path d="M262.94441,299.92909c0,0 4.28431,-4.19614 4.2524,3.97774c-0.01245,3.18972 -4.53748,1.72782 -4.53748,1.72782"/></g><path d="M259.71449,299.7729c0,0 4.28433,-4.19614 4.25241,3.97774c-0.01245,3.18972 -4.53748,1.72781 -4.53748,1.72781" stroke-linecap="round"/></g><path d="M262.61568,306.09786c-0.67709,-0.07433 -1.62446,-0.28945 -1.62446,-0.28945c0,0 0.49703,-0.98852 0.89249,-1.4493c0.38045,-0.4433 1.49541,-0.87609 1.49541,-0.87609l3.75718,3c0,0 -3.3911,-0.26117 -4.52061,-0.38516z" fill="#000000" stroke-linecap="butt"/><path d="M264.59233,306.03064c0,0 0.43859,-1.37741 0.83405,-1.83819c0.38045,-0.4433 1.49541,-0.87609 1.49541,-0.87609l3.75717,3z" fill="#000000" stroke-linecap="butt"/><path d="M267.65395,305.86397c0,0 0.4386,-1.37741 0.83405,-1.8382c0.38045,-0.4433 1.49541,-0.87609 1.49541,-0.87609l3.75718,2.76923z" fill="#000000" stroke-linecap="butt"/><path d="M270.22553,305.41953c0,0 0.4386,-1.37741 0.83405,-1.83819c0.38045,-0.4433 1.49541,-0.87609 1.49541,-0.87609l3.75717,2.61539z" fill="#000000" stroke-linecap="butt"/></g><g fill-rule="nonzero" stroke="#000000" stroke-width="1.2" stroke-linejoin="miter"><g data-paper-data="{&quot;index&quot;:null}" fill="#b67c00"><path d="M213.231,251.01123c0,-19.46468 5.44538,-33.61471 14.17882,-33.61471c8.73343,0 18.30962,7.44437 18.18323,33.44262c-0.11535,17.30921 -10.18919,22.38814 -16.95739,23.36624c-10.70646,3.86483 -15.40466,-8.24942 -15.40466,-23.19415z" stroke-linecap="butt"/><path d="M240.87202,263.44209c0,0 0.84168,-0.05077 1.34252,1.68296c0.31111,1.07695 0.3844,5.05932 0.36562,6.69666c-0.13163,11.47289 -1.63723,30.68152 -10.94582,31.96692c-13.48454,1.86204 -14.80473,-21.99428 -14.8958,-30.12471c-0.00853,-0.7613 -0.08842,-5.96294 0.38477,-7.78137c0.42644,-1.63876 1.41044,-2.34692 1.41044,-2.34692" stroke-linecap="round"/><path d="M237.34376,299.40263c0,0 1.02535,3.78086 -0.80839,5.54094c-1.40606,1.34956 -9.86485,1.7555 -12.81522,-0.24465c-2.73029,-1.85095 -0.01774,-3.67299 -0.01774,-3.67299" stroke-linecap="round"/><g stroke-linecap="round"><path d="M224.22281,305.95418c0,0 -4.52503,1.46191 -4.53748,-1.72782c-0.03191,-8.17388 4.2524,-3.97774 4.2524,-3.97774"/><path d="M226.99437,305.9725c0,0 -4.52502,1.46191 -4.53748,-1.72782c-0.03191,-8.17388 4.2524,-3.97774 4.2524,-3.97774"/><path d="M229.76595,305.83465c0,0 -4.52503,1.46191 -4.53748,-1.72782c-0.03191,-8.17388 4.2524,-3.97774 4.2524,-3.97774"/></g><path d="M232.99586,305.67846c0,0 -4.52502,1.46191 -4.53748,-1.72781c-0.03191,-8.17388 4.25241,-3.97774 4.25241,-3.97774" stroke-linecap="round"/></g><path d="M225.28899,306.68302l3.75718,-3c0,0 1.11496,0.43279 1.4954,0.87609c0.39546,0.46079 0.89249,1.44931 0.89249,1.44931c0,0 -0.94737,0.21511 -1.62446,0.28944c-1.12951,0.124 -4.52062,0.38516 -4.52062,0.38516z" fill="#000000" stroke-linecap="butt"/><path d="M221.74633,306.51636l3.75717,-3c0,0 1.11496,0.43279 1.49541,0.87609c0.39546,0.46078 0.83405,1.83819 0.83405,1.83819z" fill="#000000" stroke-linecap="butt"/><path d="M218.68471,306.11892l3.75717,-2.76923c0,0 1.11496,0.43279 1.49541,0.87609c0.39546,0.46078 0.83405,1.8382 0.83405,1.8382z" fill="#000000" stroke-linecap="butt"/><path d="M216.11312,305.52063l3.75717,-2.61538c0,0 1.11496,0.43279 1.49541,0.87609c0.39546,0.46078 0.83405,1.83819 0.83405,1.83819z" fill="#000000" stroke-linecap="butt"/></g><path d="" fill="#1d1507" fill-rule="nonzero" stroke="none" stroke-width="1.2" stroke-linecap="butt" stroke-linejoin="miter"/><path d="M219.80729,177.10373c0,13.85849 -4.13553,25.09223 -13.55975,21.50831c-10.513,3.99754 -13.80553,-5.61678 -13.90707,-21.66789c-0.05053,-10.94873 2.4276,-19.16364 6.32864,-23.94862c4.68889,-5.75134 11.24586,-6.92266 15.44214,-6.92266c3.2372,0 11.26737,0.2137 13.07592,10.00586c1.80856,9.79218 -7.34472,10.57588 -7.34472,21.02499z" data-paper-data="{&quot;index&quot;:null}" fill="#b67c00" fill-rule="nonzero" stroke="#000000" stroke-width="1.2" stroke-linecap="butt" stroke-linejoin="miter"/><g data-paper-data="{&quot;index&quot;:null}" fill-rule="nonzero" stroke="#000000" stroke-width="1.2" stroke-linejoin="miter"><path d="M200.877,227.49623c0,0 0.89118,-1.67544 1.29566,-2.37494c0.53508,-0.92533 1.00493,-0.23224 1.29258,-0.33376c0.20727,-0.07315 1.08055,2.35076 1.08055,2.35076l0.19937,7.51652z" fill="#000000" stroke-linecap="butt"/><path d="M213.49403,225.88553c0,0 0.89117,-1.67544 1.29565,-2.37492c0.53508,-0.92533 1.00493,-0.23224 1.29258,-0.33376c0.20727,-0.07315 1.08055,2.35075 1.08055,2.35075l0.19938,7.51653z" fill="#000000" stroke-linecap="butt"/><path d="M207.40922,227.31726c0,0 0.89117,-1.67544 1.29565,-2.37493c0.53508,-0.92533 1.00493,-0.23223 1.29258,-0.33376c0.20727,-0.07315 1.08055,2.35075 1.08055,2.35075l0.19937,7.51653z" fill="#000000" stroke-linecap="butt"/><path d="M215.56148,188.71782c0,0 0.86616,0.65668 1.24153,2.17633c0.41652,1.68625 0.3462,4.28426 0.33869,4.99024c-0.08016,7.53947 1.04275,29.66182 -10.82684,27.93512c-8.19378,-1.19198 -9.94091,-18.26259 -10.05677,-28.9016c-0.01654,-1.51833 0.04799,-3.72754 0.32184,-4.72622c0.44085,-1.60772 1.18173,-1.56064 1.18173,-1.56064" fill="#b67c00" stroke-linecap="round"/><path d="M216.24687,212.33682l1.11676,9.81868c0,0 1.13015,5.0058 -0.74765,6.42239c-2.78918,2.10411 -5.03295,-4.92345 -5.03295,-4.92345l-1.5373,-6.22382c0,0 4.65013,12.46969 -0.3199,12.99285c-2.30216,0.24234 -4.2892,-5.26464 -4.2892,-5.26464l-0.87841,-7.0392l0.92037,7.24515c0,0 0.26242,6.08343 -2.15075,5.79692c-2.41318,-0.28651 -3.67032,-6.48804 -3.67032,-6.48804l-1.37425,-11.96772" fill="#b67c00" stroke-linecap="round"/></g><path d="M272.10355,177.43183c0,-10.44911 -9.15328,-11.23281 -7.34472,-21.02499c1.80856,-9.79218 9.83873,-10.00586 13.07592,-10.00586c4.19629,0 10.75326,1.17132 15.44214,6.92266c3.90104,4.78498 6.37917,12.99989 6.32864,23.94862c-0.10154,16.05111 -3.39407,25.66544 -13.90707,21.6679c-9.42423,3.58392 -13.55975,-7.64982 -13.55975,-21.50831z" fill="#b67c00" fill-rule="nonzero" stroke="#000000" stroke-width="1.2" stroke-linecap="butt" stroke-linejoin="miter"/><g fill-rule="nonzero" stroke="#000000" stroke-width="1.2" stroke-linejoin="miter"><path d="M287.20086,234.98292l0.19937,-7.51652c0,0 0.87329,-2.42391 1.08055,-2.35076c0.28766,0.10152 0.7575,-0.59157 1.29258,0.33376c0.40448,0.69949 1.29565,2.37494 1.29565,2.37494z" fill="#000000" stroke-linecap="butt"/><path d="M274.58384,233.37223l0.19937,-7.51653c0,0 0.87329,-2.42392 1.08055,-2.35076c0.28766,0.10152 0.7575,-0.59157 1.29257,0.33376c0.40448,0.69949 1.29565,2.37493 1.29565,2.37493z" fill="#000000" stroke-linecap="butt"/><path d="M280.66864,234.80396l0.19938,-7.51654c0,0 0.87328,-2.4239 1.08055,-2.35075c0.28766,0.10152 0.7575,-0.59157 1.29257,0.33376c0.40448,0.69949 1.29566,2.37493 1.29566,2.37493z" fill="#000000" stroke-linecap="butt"/><path d="M294.18437,188.95916c0,0 0.74088,-0.04708 1.18173,1.56064c0.27385,0.99868 0.33838,3.20789 0.32184,4.72622c-0.11586,10.63901 -1.863,27.70963 -10.05677,28.9016c-11.8696,1.7267 -10.74668,-20.39565 -10.82684,-27.93512c-0.00751,-0.70597 -0.07783,-3.30399 0.33869,-4.99024c0.37536,-1.51965 1.24153,-2.17633 1.24153,-2.17633" fill="#b67c00" stroke-linecap="round"/><path d="M293.66274,213.03404l-1.37425,11.96771c0,0 -1.25714,6.20153 -3.67032,6.48804c-2.41318,0.28651 -2.15075,-5.79692 -2.15075,-5.79692l0.92037,-7.24515l-0.87841,7.0392c0,0 -1.98704,5.50697 -4.2892,5.26464c-4.97003,-0.52316 -0.3199,-12.99285 -0.3199,-12.99285l-1.5373,6.22382c0,0 -2.24377,7.02757 -5.03295,4.92346c-1.87779,-1.41658 -0.74765,-6.42239 -0.74765,-6.42239l1.11676,-9.81868" fill="#b67c00" stroke-linecap="round"/></g><g fill-rule="nonzero" stroke-width="1.2" stroke-linejoin="miter"><path d="M244.67002,219.51567c-0.47603,0.0436 -0.91593,0.08188 -1.31497,0.1147c-16.89664,1.38988 -16.64591,1.30066 -23.06376,-5.40983c-2.1901,-2.28997 -4.56773,-11.71006 -5.86804,-19.63386c-1.30032,-7.92379 -0.25015,-17.64872 -0.25015,-17.64872c0,0 -0.70338,0.25654 -0.65976,-0.3141c-9.97733,-3.17486 -7.63931,-14.73989 -3.16076,-22.65459c1.61604,-2.85594 3.88898,-4.60628 5.4303,-6.20275c2.99595,-3.10311 18.27074,-3.71797 18.27074,-3.71797h24.5047c0,0 15.27481,0.61486 18.27074,3.71797c1.54132,1.59647 3.81425,3.34681 5.4303,6.20275c4.47855,7.91471 6.81659,19.47971 -3.16075,22.65459c0.04362,0.57064 -0.65976,0.3141 -0.65976,0.3141c0,0 0.19254,10.8296 -0.92651,17.64872c-1.11904,6.81912 -3.00158,17.34388 -5.19169,19.63386c-6.41785,6.7105 -6.16712,6.79972 -23.06377,5.40983c-0.39906,-0.03281 -0.83894,-0.07111 -1.31497,-0.1147" data-paper-data="{&quot;index&quot;:null}" fill="#b67c00" stroke="#000000" stroke-linecap="butt"/><path d="M273.08272,212.27833c1.45372,3.50094 2.35609,7.50782 1.06506,10.81373c-0.22672,0.58056 -0.21811,1.82705 -2.49056,2.74569c-3.15334,1.27475 -9.13402,2.38768 -12.24806,4.40879c-1.50684,0.97799 -3.81796,2.73365 -5.05576,4.98733c-2.09976,3.82305 -3.33331,7.76788 -8.45812,7.844c-4.40977,0.06551 -5.75739,-4.26951 -8.13568,-8.08477c-1.47067,-2.35925 -4.1709,-3.73896 -5.72335,-4.74654c-3.70549,-2.40497 -9.41391,-3.39685 -12.55325,-4.75992c-1.40018,-0.60795 -2.0184,-1.967 -2.18538,-2.39456c-1.4364,-3.67817 -0.15762,-8.22404 1.57476,-11.97538" fill="#b67c00" stroke="#000000" stroke-linecap="round"/><g><path d="M237.7065,214.25888c-0.11762,-0.34197 0.27968,-0.76823 0.88742,-0.95206c0.60772,-0.18385 1.19574,-0.05569 1.31336,0.28628c0.11762,0.34197 -0.27968,0.76823 -0.88742,0.95206c-0.60772,0.18385 -1.19573,0.05569 -1.31335,-0.28628z" fill="#ffaf71" stroke="none" stroke-linecap="butt"/><path d="M263.07063,213.43993c0,0 0.67763,3.69581 -4.67719,8.32077c-2.34831,2.02823 -6.23388,22.15565 -12.28898,21.22677c-4.63391,0.91519 -8.63334,-19.53035 -11.11075,-21.25822c-6.41053,-4.47102 -4.86958,-8.62252 -4.86958,-8.62252c0,0 11.04265,-1.88113 16.04941,-1.88113c5.4079,0 14.94377,1.67211 14.94377,1.67211z" fill="#eda200" stroke="#000000" stroke-linecap="butt"/><g data-paper-data="{&quot;index&quot;:null}" fill="#eda200" stroke="#000000" stroke-linecap="round"><path d="M246.45963,197.85728c1.39363,6.39808 0.03252,12.9884 -0.16713,13.1231c-7.29869,3.35647 -17.04958,4.9997 -18.77644,0.19163c-0.81437,-2.2674 -2.20438,-10.22124 -0.56102,-13.49912c2.79193,-5.56876 13.94722,-3.68112 14.99699,-3.54898"/><path d="M250.57298,194.38814c1.04977,-0.13214 13.21961,-2.01982 16.01152,3.54897c1.64336,3.27787 0.25332,11.23168 -0.56103,13.49911c-1.72686,4.80806 -12.49229,3.16486 -19.79096,-0.19163c-0.19966,-0.13469 -1.56075,-6.72499 -0.16713,-13.12308" data-paper-data="{&quot;index&quot;:null}"/></g><g data-paper-data="{&quot;index&quot;:null}" fill="#eda200" stroke="#000000" stroke-linecap="round"><path d="M246.60458,186.0765c1.63907,5.84898 0.03825,11.87367 -0.19658,11.9968c-8.58422,3.06839 -21.1171,4.57059 -23.14811,0.17518c-0.95781,-2.07281 -2.59265,-9.34402 -0.65983,-12.34057c3.28368,-5.09085 17.46832,-3.36517 18.70296,-3.24439"/><path d="M251.44244,182.90513c1.23466,-0.1208 15.58839,-1.84646 18.87206,3.2444c1.93283,2.99657 0.29796,10.26776 -0.65984,12.34056c-2.03102,4.39541 -14.73298,2.89323 -23.3172,-0.17518c-0.23482,-0.12315 -1.83564,-6.14783 -0.19658,-11.9968" data-paper-data="{&quot;index&quot;:null}"/></g><g data-paper-data="{&quot;index&quot;:null}" fill="#eda200" stroke="#000000" stroke-linecap="round"><path d="M246.71638,172.81268c2.06669,6.69553 0.04824,13.59222 -0.24783,13.73317c-10.82358,3.51251 -24.78797,5.40123 -27.34882,0.36964c-1.20765,-2.37282 -2.76173,-10.86551 -0.3247,-14.29577c4.14028,-5.82769 19.68008,-3.85224 21.23681,-3.71398"/><path d="M252.98537,169.18229c1.55675,-0.13827 17.09652,-2.11372 21.23682,3.71397c2.43703,3.43026 0.37569,11.75386 -0.83197,14.12667c-2.56083,5.03159 -16.01795,3.31197 -26.84155,-0.20053c-0.29607,-0.14095 -2.31451,-7.03763 -0.24784,-13.73318" data-paper-data="{&quot;index&quot;:null}"/></g><path d="M246.14446,242.50257c0,0 -2.02241,-7.69157 -1.77228,-15.87327c0.25551,-8.35787 1.69347,-15.07231 1.69347,-15.07231" fill="#eda200" stroke="#000000" stroke-linecap="round"/></g><path d="M249.51391,151.10205c0.9253,1.80382 1.62365,3.47567 2.12895,5.02455c4.87934,14.95652 -8.24123,18.44953 -8.82833,18.6177c-16.23781,3.17084 -27.2387,1.39629 -31.08055,-3.14582c-3.21618,-3.80245 -2.03891,-12.96588 0.60717,-19.00209c1.37688,-3.14092 3.89129,-5.1885 4.81622,-5.71845c2.31759,-1.32789 6.10317,-1.92681 9.73619,-2.30752c4.13042,-0.43284 9.85795,-0.72919 13.63124,-0.04452c4.0517,0.73519 6.00538,2.47215 6.00538,2.47215" data-paper-data="{&quot;index&quot;:null}" fill="#eda200" stroke="#000000" stroke-linecap="round"/><path d="M245.57793,146.82899c0,0 1.95368,-1.73697 6.00539,-2.47216c3.77329,-0.68467 9.50082,-0.38832 13.63124,0.04452c3.63301,0.38072 7.41861,0.97964 9.73619,2.30752c0.92494,0.52996 3.43935,2.57753 4.81622,5.71845c2.64607,6.0362 3.82335,15.19965 0.60717,19.00209c-3.84184,4.5421 -14.84273,6.31666 -31.08054,3.14582c-0.03983,-0.01141 -2.56087,-0.50771 -3.78959,-2.15099c-2.08799,-2.7925 -3.31679,-7.93964 -3.14773,-12.6975c0.23222,-6.53516 2.92797,-12.33177 3.28151,-13.02099" data-paper-data="{&quot;index&quot;:null}" fill="#eda200" stroke="#000000" stroke-linecap="round"/></g><path d="M274.14778,223.09206c-0.22672,0.58056 -0.21811,1.82705 -2.49056,2.74569c-3.15334,1.27475 -9.13402,2.38768 -12.24806,4.40879c-1.50684,0.97799 -3.81796,2.73365 -5.05576,4.98732c-2.09976,3.82305 -3.33331,7.76788 -8.45812,7.844c-4.40977,0.06551 -5.75739,-4.26951 -8.13568,-8.08477c-1.47067,-2.35925 -4.1709,-3.73896 -5.72335,-4.74654c-3.70549,-2.40497 -9.41391,-3.39685 -12.55325,-4.75992c-1.40018,-0.60795 -2.0184,-1.967 -2.18538,-2.39456c-0.90503,-2.31749 -0.73217,-4.65135 -0.04711,-7.24201c2.25321,0.42007 55.29955,0.41358 57.03356,0.31158c0.11355,-0.00668 0.36557,3.18618 0.48255,3.18052c0.02305,1.30262 -0.15839,2.57083 -0.61883,3.74988z" fill="#000000" fill-rule="nonzero" stroke="#000000" stroke-width="1.2" stroke-linecap="round" stroke-linejoin="miter"/><g stroke="#000000"><path d="M293.77699,53.31698l-0.84895,32.7178c0,0 3.03326,7.91373 3.48026,12.16152c1.38346,13.14703 0.45532,18.84593 0.45532,18.84593c0,0 -15.02937,-0.28909 -22.13709,0.69303c-3.37082,0.46577 -9.7435,1.19892 -13.90515,2.12918c-4.94331,1.10498 -7.43479,2.38533 -7.43479,2.38533c0,0 2.8475,-1.42739 7.36576,-2.42549c7.28559,-1.60942 18.91532,-3.06273 29.95563,-2.8068c5.64336,0.13082 11.28879,0.23569 15.8969,1.77867c0.63221,0.21169 6.90766,1.99169 8.9234,6.25901c0.76035,1.60966 1.04343,6.08256 -1.6799,10.3625c-4.44591,6.98713 -12.57405,14.45907 -15.98477,15.53962c-6.85293,2.17106 -25.91449,2.44126 -25.91449,2.44126l-1.23313,5.47033l-6.59846,-5.34785l-3.60006,4.83946l-5.60678,-4.92594l-6.20903,6.2911c0,0 -4.62502,-4.73584 -6.72579,-6.03843c-1.33072,-0.82512 -4.66048,-1.02168 -4.66048,-1.02168l-10.13791,7.90449l-6.47029,-6.98757c0,0 -2.20261,1.27788 -3.50317,1.87088c-1.17881,0.53749 -3.97089,1.53699 -3.97089,1.53699l-2.16095,-8.42967c0,0 -1.3463,0.17108 -2.1342,0.27121c-0.97779,0.12425 -3.88682,1.01768 -3.88682,1.01768c0,0 1.42776,-5.16491 -0.95002,-6.40193c-2.37778,-1.23702 -6.0591,2.75549 -6.0591,2.75549c0,0 0.65763,-6.9589 0.93491,-9.20874c0.16039,-1.30145 0.57976,-3.08144 0.57976,-3.08144c0,0 -1.87679,0.10685 -2.77326,0.65735c-1.17204,0.71972 -3.45654,3.291 -3.45654,3.291c0,0 -0.06843,-4.06101 -0.01186,-5.80696c0.04647,-1.43428 0.32697,-3.9188 0.32697,-3.9188c0,0 -1.71624,0.68001 -2.48145,1.19162c-0.94076,0.62897 -2.74601,2.30336 -2.74601,2.30336c0,0 0.88531,-3.80851 1.51004,-5.4104c0.49912,-1.2798 1.94683,-3.45342 1.94683,-3.45342c0,0 -1.60996,-1.18997 -2.57578,-1.66388c-1.2415,-0.60917 -3.45603,-1.08833 -3.45603,-1.08833c0,0 2.1818,-2.57111 3.47876,-3.60245c1.08137,-0.8599 2.97447,-2.76529 2.97447,-2.76529c0,0 0.24999,-3.11872 0.89434,-6.01456c0.29819,-1.3401 0.83799,-2.63246 1.19409,-3.54593c3.1451,-8.06783 13.46656,-13.3276 12.95379,-12.64391l-10.62553,-30.49977l25.31452,14.72436c0,0 13.24703,-3.13879 22.54989,-3.0527c9.30285,0.08609 19.00211,2.59999 22.93958,3.28478z" fill="#b67c00" fill-rule="evenodd" stroke-width="1.2" stroke-linecap="butt" stroke-linejoin="miter"/><path d="M210.00196,87.6894l-6.85714,-19.28571l15,9.85714l-3.06833,1.12015l0.91286,4.43403l-4.5573,-0.96196z" fill="#ff5dfc" fill-rule="nonzero" stroke-width="1.2" stroke-linecap="butt" stroke-linejoin="miter"/><path d="M285.14329,78.7102l-4.98587,1.96196l-0.37285,-4.57689l-7.21119,1.16556l17.42857,-15.28572l-1.71429,22.14286z" data-paper-data="{&quot;index&quot;:null}" fill="#ff5dfc" fill-rule="nonzero" stroke-width="1.2" stroke-linecap="butt" stroke-linejoin="miter"/><path d="M315.51357,125.4775c0,0 -2.82804,0.6875 -6.625,0.6875c-3.79696,0 -5.75,-0.80945 -5.75,-3.8125c0,-3.00305 2.25,-3.8125 2.25,-3.8125c0,0 3.77418,1.02665 5.28557,1.96894c0.98348,0.61316 2.96661,1.90239 3.88754,3.06587c0.77359,0.97732 0.95189,1.9027 0.95189,1.9027z" fill="#000000" fill-rule="nonzero" stroke-width="1.2" stroke-linecap="butt" stroke-linejoin="miter"/><path d="M279.63857,132.165l-4,8.125" fill="none" fill-rule="nonzero" stroke-width="1.2" stroke-linecap="round" stroke-linejoin="miter"/><path d="M308.76357,140.915c0,0 -3.66331,0.83784 -7.86364,1.01669c-3.525,0.1501 -7.42822,-0.31179 -9.8618,-0.67931c-2.80208,-0.42317 -6.22047,-1.14645 -8.83412,-2.33095c-2.36109,-1.07004 -4.06544,-2.63143 -4.06544,-2.63143" fill="none" fill-rule="nonzero" stroke-width="1.2" stroke-linecap="round" stroke-linejoin="miter"/><path d="M252.63554,108.50043c-0.18287,8.20869 -4.17697,14.76727 -8.95593,14.64011c-4.77896,-0.12716 -8.55175,-6.75414 -8.48771,-15.04896c0.18287,-8.20869 4.17697,-14.76728 8.95593,-14.64011c4.8596,0.00025 8.67058,6.84028 8.4877,15.04896z" fill="#ffffff" fill-rule="evenodd" stroke-width="1.2" stroke-linecap="round" stroke-linejoin="round"/><path d="M250.30238,108.74437c-0.36819,1.5591 -1.42076,2.37611 -2.35992,1.80284c-0.93916,-0.57327 -1.38925,-2.30751 -1.02106,-3.86661c0.36819,-1.5591 1.42077,-2.37611 2.35993,-1.80284c0.93916,0.57327 1.38925,2.30751 1.02106,3.86661" fill="#001026" fill-rule="evenodd" stroke-width="1" stroke-linecap="butt" stroke-linejoin="miter"/><path d="M273.63554,108.75043c-0.18288,8.20869 -4.17697,14.76727 -8.95593,14.64011c-4.77896,-0.12716 -8.55175,-6.75414 -8.48771,-15.04896c0.18287,-8.20869 4.17697,-14.76728 8.95593,-14.64011c4.8596,0.00025 8.67058,6.84028 8.48771,15.04896z" fill="#ffffff" fill-rule="evenodd" stroke-width="1.2" stroke-linecap="round" stroke-linejoin="round"/><path d="M271.30238,108.99437c-0.36819,1.5591 -1.42077,2.37611 -2.35993,1.80284c-0.93916,-0.57327 -1.38925,-2.30751 -1.02106,-3.86661c0.36819,-1.5591 1.42076,-2.37611 2.35992,-1.80284c0.93916,0.57327 1.38925,2.30751 1.02106,3.86661" fill="#001026" fill-rule="evenodd" stroke-width="1" stroke-linecap="butt" stroke-linejoin="miter"/><path d="M274.89029,90.33548l-17,9.125l-2.75,-6l-3.625,5.75l-17.125,-9.75" fill="#b67c00" fill-rule="nonzero" stroke-width="1.2" stroke-linecap="round" stroke-linejoin="miter"/><path d="M269.90284,123.30595c-2.3865,0.87176 -4.63049,2.18048 -6.4976,1.72928c-0.94345,-0.22799 -5.74001,-0.49635 -5.74001,-3.78015c0,-1.50582 2.10652,-1.4816 5.15297,-2.13752c0.31849,-0.14709 0.67318,-0.22915 1.04703,-0.22915c0.16892,0 0.33393,0.01675 0.49345,0.04869c0.20877,0.0418 0.40814,0.1096 0.5946,0.19987c3.75292,-0.97878 6.5827,-1.5731 9.53951,-1.49569c0.24914,0.00652 -2.87848,5.03949 -4.58996,5.66467z" fill="#b67c00" fill-rule="nonzero" stroke-width="0" stroke-linecap="butt" stroke-linejoin="miter"/><path d="M252.85652,122.42631c0,0 2.50333,-1.02727 4.89796,-1.79409c1.8168,-0.58179 3.91641,-0.98634 5.68215,-1.31333c3.24024,-0.60004 9.57264,-1.44461 13.53347,-1.86442c1.90087,-0.20147 3.48642,-0.22814 3.48642,-0.22814" fill="#b67c00" fill-rule="nonzero" stroke-width="1.2" stroke-linecap="round" stroke-linejoin="miter"/></g></g></g></svg>