<svg version="1.1" xmlns="http://www.w3.org/2000/svg" xmlns:xlink="http://www.w3.org/1999/xlink" width="425.39362" height="228.7962" viewBox="0,0,425.39362,228.7962"><defs><radialGradient cx="339.18846" cy="135.45497" r="13.47295" gradientUnits="userSpaceOnUse" id="color-1"><stop offset="0" stop-color="#ff5dfc"/><stop offset="1" stop-color="#ff5dfc" stop-opacity="0"/></radialGradient><linearGradient x1="87.60156" y1="247.77117" x2="87.60156" y2="293.56283" gradientUnits="userSpaceOnUse" id="color-2"><stop offset="0" stop-color="#00c4ff"/><stop offset="1" stop-color="#00c4ff" stop-opacity="0"/></linearGradient><linearGradient x1="109.76822" y1="247.43783" x2="109.76822" y2="293.2295" gradientUnits="userSpaceOnUse" id="color-3"><stop offset="0" stop-color="#00c4ff"/><stop offset="1" stop-color="#00c4ff" stop-opacity="0"/></linearGradient><radialGradient cx="355.18846" cy="254.45497" r="13.47295" gradientUnits="userSpaceOnUse" id="color-4"><stop offset="0" stop-color="#ff5dfc"/><stop offset="1" stop-color="#ff5dfc" stop-opacity="0"/></radialGradient></defs><g transform="translate(-26.7898,-64.9333)"><g data-paper-data="{&quot;isPaintingLayer&quot;:true}" stroke-miterlimit="10" stroke-dasharray="" stroke-dashoffset="0" style="mix-blend-mode: normal"><path d="" fill="#1d1507" fill-rule="nonzero" stroke="none" stroke-width="1.2" stroke-linecap="butt" stroke-linejoin="miter"/><g stroke="#000000"><path d="M135.83213,69.91969l-0.84895,32.7178c0,0 3.03326,7.91373 3.48026,12.16152c1.38346,13.14703 0.45532,18.84593 0.45532,18.84593c0,0 -15.02937,-0.28909 -22.13709,0.69303c-3.37082,0.46577 -9.7435,1.19892 -13.90515,2.12918c-4.94331,1.10498 -7.43479,2.38533 -7.43479,2.38533c0,0 2.8475,-1.42739 7.36576,-2.42549c7.28559,-1.60942 18.91532,-3.06273 29.95563,-2.8068c5.64336,0.13082 11.28879,0.23569 15.8969,1.77867c0.63221,0.21169 6.90766,1.99169 8.9234,6.25901c0.76035,1.60966 1.04343,6.08256 -1.6799,10.3625c-4.44591,6.98713 -12.57405,14.45907 -15.98477,15.53962c-6.85293,2.17106 -25.91449,2.44126 -25.91449,2.44126l-1.23313,5.47033l-6.59846,-5.34785l-3.60006,4.83946l-5.60678,-4.92594l-6.20903,6.2911c0,0 -4.62502,-4.73584 -6.72579,-6.03843c-1.33072,-0.82512 -4.66048,-1.02168 -4.66048,-1.02168l-10.13791,7.90449l-6.47029,-6.98757c0,0 -2.20261,1.27788 -3.50317,1.87088c-1.17881,0.53749 -3.97089,1.53699 -3.97089,1.53699l-2.16095,-8.42967c0,0 -1.3463,0.17108 -2.1342,0.27121c-0.97779,0.12425 -3.88682,1.01768 -3.88682,1.01768c0,0 1.42776,-5.16491 -0.95002,-6.40193c-2.37778,-1.23702 -6.0591,2.75549 -6.0591,2.75549c0,0 0.65763,-6.9589 0.93491,-9.20874c0.16039,-1.30145 0.57976,-3.08144 0.57976,-3.08144c0,0 -1.87679,0.10685 -2.77326,0.65735c-1.17204,0.71972 -3.45654,3.291 -3.45654,3.291c0,0 -0.06843,-4.06101 -0.01186,-5.80696c0.04647,-1.43428 0.32697,-3.9188 0.32697,-3.9188c0,0 -1.71624,0.68001 -2.48145,1.19162c-0.94076,0.62897 -2.74601,2.30336 -2.74601,2.30336c0,0 0.88531,-3.80851 1.51004,-5.4104c0.49912,-1.2798 1.94683,-3.45342 1.94683,-3.45342c0,0 -1.60996,-1.18997 -2.57578,-1.66388c-1.2415,-0.60917 -3.45603,-1.08833 -3.45603,-1.08833c0,0 2.1818,-2.57111 3.47876,-3.60245c1.08137,-0.8599 2.97447,-2.76529 2.97447,-2.76529c0,0 0.24999,-3.11872 0.89434,-6.01456c0.29819,-1.3401 0.83799,-2.63246 1.19409,-3.54593c3.1451,-8.06783 13.46656,-13.3276 12.95379,-12.64391l-10.62553,-30.49977l25.31452,14.72436c0,0 13.24703,-3.13879 22.54989,-3.0527c9.30285,0.08609 19.00211,2.59999 22.93958,3.28478z" fill="#b67c00" fill-rule="evenodd" stroke-width="1.2" stroke-linecap="butt" stroke-linejoin="miter"/><path d="M52.0571,104.29211l-6.85714,-19.28571l15,9.85714l-3.06833,1.12015l0.91286,4.43403l-4.5573,-0.96196z" fill="#ff5dfc" fill-rule="nonzero" stroke-width="1.2" stroke-linecap="butt" stroke-linejoin="miter"/><path d="M127.19843,95.31291l-4.98587,1.96196l-0.37285,-4.57689l-7.21119,1.16556l17.42857,-15.28572l-1.71429,22.14286z" data-paper-data="{&quot;index&quot;:null}" fill="#ff5dfc" fill-rule="nonzero" stroke-width="1.2" stroke-linecap="butt" stroke-linejoin="miter"/><path d="M157.56871,142.08021c0,0 -2.82804,0.6875 -6.625,0.6875c-3.79696,0 -5.75,-0.80945 -5.75,-3.8125c0,-3.00305 2.25,-3.8125 2.25,-3.8125c0,0 3.77418,1.02665 5.28557,1.96894c0.98348,0.61316 2.96661,1.90239 3.88754,3.06587c0.77359,0.97732 0.95189,1.9027 0.95189,1.9027z" fill="#000000" fill-rule="nonzero" stroke-width="1.2" stroke-linecap="butt" stroke-linejoin="miter"/><path d="M121.69371,148.76771l-4,8.125" fill="none" fill-rule="nonzero" stroke-width="1.2" stroke-linecap="round" stroke-linejoin="miter"/><path d="M150.81871,157.51771c0,0 -3.66331,0.83784 -7.86364,1.01669c-3.525,0.1501 -7.42822,-0.31179 -9.8618,-0.67931c-2.80208,-0.42317 -6.22047,-1.14645 -8.83412,-2.33095c-2.36109,-1.07004 -4.06544,-2.63143 -4.06544,-2.63143" fill="none" fill-rule="nonzero" stroke-width="1.2" stroke-linecap="round" stroke-linejoin="miter"/><path d="M94.69068,125.10314c-0.18287,8.20869 -4.17697,14.76727 -8.95593,14.64011c-4.77896,-0.12716 -8.55175,-6.75414 -8.48771,-15.04896c0.18287,-8.20869 4.17697,-14.76728 8.95593,-14.64011c4.8596,0.00025 8.67058,6.84028 8.4877,15.04896z" fill="#ffffff" fill-rule="evenodd" stroke-width="1.2" stroke-linecap="round" stroke-linejoin="round"/><path d="M92.35752,125.34708c-0.36819,1.5591 -1.42076,2.37611 -2.35992,1.80284c-0.93916,-0.57327 -1.38925,-2.30751 -1.02106,-3.86661c0.36819,-1.5591 1.42077,-2.37611 2.35993,-1.80284c0.93916,0.57327 1.38925,2.30751 1.02106,3.86661" fill="#001026" fill-rule="evenodd" stroke-width="1" stroke-linecap="butt" stroke-linejoin="miter"/><path d="M115.69068,125.35314c-0.18288,8.20869 -4.17697,14.76727 -8.95593,14.64011c-4.77896,-0.12716 -8.55175,-6.75414 -8.48771,-15.04896c0.18287,-8.20869 4.17697,-14.76728 8.95593,-14.64011c4.8596,0.00025 8.67058,6.84028 8.48771,15.04896z" fill="#ffffff" fill-rule="evenodd" stroke-width="1.2" stroke-linecap="round" stroke-linejoin="round"/><path d="M113.35752,125.59708c-0.36819,1.5591 -1.42077,2.37611 -2.35993,1.80284c-0.93916,-0.57327 -1.38925,-2.30751 -1.02106,-3.86661c0.36819,-1.5591 1.42076,-2.37611 2.35992,-1.80284c0.93916,0.57327 1.38925,2.30751 1.02106,3.86661" fill="#001026" fill-rule="evenodd" stroke-width="1" stroke-linecap="butt" stroke-linejoin="miter"/><path d="M116.94543,106.93819l-17,9.125l-2.75,-6l-3.625,5.75l-17.125,-9.75" fill="#b67c00" fill-rule="nonzero" stroke-width="1.2" stroke-linecap="round" stroke-linejoin="miter"/><path d="M111.95798,139.90866c-2.3865,0.87176 -4.63049,2.18048 -6.4976,1.72928c-0.94345,-0.22799 -5.74001,-0.49635 -5.74001,-3.78015c0,-1.50582 2.10652,-1.4816 5.15297,-2.13752c0.31849,-0.14709 0.67318,-0.22915 1.04703,-0.22915c0.16892,0 0.33393,0.01675 0.49345,0.04869c0.20877,0.0418 0.40814,0.1096 0.5946,0.19987c3.75292,-0.97878 6.5827,-1.5731 9.53951,-1.49569c0.24914,0.00652 -2.87848,5.03949 -4.58996,5.66467z" fill="#b67c00" fill-rule="nonzero" stroke-width="0" stroke-linecap="butt" stroke-linejoin="miter"/><path d="M94.91166,139.02902c0,0 2.50333,-1.02727 4.89796,-1.79409c1.8168,-0.58179 3.91641,-0.98634 5.68215,-1.31333c3.24024,-0.60004 9.57264,-1.44461 13.53347,-1.86442c1.90087,-0.20147 3.48642,-0.22814 3.48642,-0.22814" fill="#b67c00" fill-rule="nonzero" stroke-width="1.2" stroke-linecap="round" stroke-linejoin="miter"/></g><g stroke="#000000"><path d="M274.47645,67.66883l-0.84895,32.7178c0,0 3.03326,7.91373 3.48026,12.16152c1.38346,13.14703 0.45532,18.84593 0.45532,18.84593c0,0 -15.02937,-0.28909 -22.13709,0.69303c-3.37082,0.46577 -9.7435,1.19892 -13.90515,2.12918c-4.94331,1.10498 -7.43479,2.38533 -7.43479,2.38533c0,0 2.8475,-1.42739 7.36576,-2.42549c7.28559,-1.60942 18.91532,-3.06273 29.95563,-2.8068c5.64336,0.13082 11.28879,0.23569 15.8969,1.77867c0.63221,0.21169 6.90766,1.99169 8.9234,6.25901c0.76035,1.60966 1.04343,6.08256 -1.6799,10.3625c-4.44591,6.98713 -12.57405,14.45907 -15.98477,15.53962c-6.85293,2.17106 -25.91449,2.44126 -25.91449,2.44126l-1.23313,5.47033l-6.59846,-5.34785l-3.60006,4.83946l-5.60678,-4.92594l-6.20903,6.2911c0,0 -4.62502,-4.73584 -6.72579,-6.03843c-1.33072,-0.82512 -4.66048,-1.02168 -4.66048,-1.02168l-10.13791,7.90449l-6.47029,-6.98757c0,0 -2.20261,1.27788 -3.50317,1.87088c-1.17881,0.53749 -3.97089,1.53699 -3.97089,1.53699l-2.16095,-8.42967c0,0 -1.3463,0.17108 -2.1342,0.27121c-0.97779,0.12425 -3.88682,1.01768 -3.88682,1.01768c0,0 1.42776,-5.16491 -0.95002,-6.40193c-2.37778,-1.23702 -6.0591,2.75549 -6.0591,2.75549c0,0 0.65763,-6.9589 0.93491,-9.20874c0.16039,-1.30145 0.57976,-3.08144 0.57976,-3.08144c0,0 -1.87679,0.10685 -2.77326,0.65735c-1.17204,0.71972 -3.45654,3.291 -3.45654,3.291c0,0 -0.06843,-4.06101 -0.01186,-5.80696c0.04647,-1.43428 0.32697,-3.9188 0.32697,-3.9188c0,0 -1.71624,0.68001 -2.48145,1.19162c-0.94076,0.62897 -2.74601,2.30336 -2.74601,2.30336c0,0 0.88531,-3.80851 1.51004,-5.4104c0.49912,-1.2798 1.94683,-3.45342 1.94683,-3.45342c0,0 -1.60996,-1.18997 -2.57578,-1.66388c-1.2415,-0.60917 -3.45603,-1.08833 -3.45603,-1.08833c0,0 2.1818,-2.57111 3.47876,-3.60245c1.08137,-0.8599 2.97447,-2.76529 2.97447,-2.76529c0,0 0.24999,-3.11872 0.89434,-6.01456c0.29819,-1.3401 0.83799,-2.63246 1.19409,-3.54593c3.1451,-8.06783 13.46656,-13.3276 12.95379,-12.64391l-10.62553,-30.49977l25.31452,14.72436c0,0 13.24703,-3.13879 22.54989,-3.0527c9.30285,0.08609 19.00211,2.59999 22.93958,3.28478z" fill="#b67c00" fill-rule="evenodd" stroke-width="1.2" stroke-linecap="butt" stroke-linejoin="miter"/><path d="M190.70142,102.04125l-6.85714,-19.28571l15,9.85714l-3.06833,1.12015l0.91286,4.43403l-4.5573,-0.96196z" fill="#ff5dfc" fill-rule="nonzero" stroke-width="1.2" stroke-linecap="butt" stroke-linejoin="miter"/><path d="M265.84275,93.06205l-4.98587,1.96196l-0.37285,-4.57689l-7.21119,1.16556l17.42857,-15.28572l-1.71429,22.14286z" data-paper-data="{&quot;index&quot;:null}" fill="#ff5dfc" fill-rule="nonzero" stroke-width="1.2" stroke-linecap="butt" stroke-linejoin="miter"/><path d="M296.21303,139.82935c0,0 -2.82804,0.6875 -6.625,0.6875c-3.79696,0 -5.75,-0.80945 -5.75,-3.8125c0,-3.00305 2.25,-3.8125 2.25,-3.8125c0,0 3.77418,1.02665 5.28557,1.96894c0.98348,0.61316 2.96661,1.90239 3.88754,3.06587c0.77359,0.97732 0.95189,1.9027 0.95189,1.9027z" fill="#000000" fill-rule="nonzero" stroke-width="1.2" stroke-linecap="butt" stroke-linejoin="miter"/><path d="M233.335,122.85228c-0.18287,8.20869 -4.17697,14.76727 -8.95593,14.64011c-4.77896,-0.12716 -8.55175,-6.75414 -8.48771,-15.04896c0.18287,-8.20869 4.17697,-14.76728 8.95593,-14.64011c4.8596,0.00025 8.67058,6.84028 8.4877,15.04896z" fill="#ffffff" fill-rule="evenodd" stroke-width="1.2" stroke-linecap="round" stroke-linejoin="round"/><path d="M231.00184,123.09622c-0.36819,1.5591 -1.42076,2.37611 -2.35992,1.80284c-0.93916,-0.57327 -1.38925,-2.30751 -1.02106,-3.86661c0.36819,-1.5591 1.42077,-2.37611 2.35993,-1.80284c0.93916,0.57327 1.38925,2.30751 1.02106,3.86661" fill="#001026" fill-rule="evenodd" stroke-width="1" stroke-linecap="butt" stroke-linejoin="miter"/><path d="M254.335,123.10228c-0.18288,8.20869 -4.17697,14.76727 -8.95593,14.64011c-4.77896,-0.12716 -8.55175,-6.75414 -8.48771,-15.04896c0.18287,-8.20869 4.17697,-14.76728 8.95593,-14.64011c4.8596,0.00025 8.67058,6.84028 8.48771,15.04896z" fill="#ffffff" fill-rule="evenodd" stroke-width="1.2" stroke-linecap="round" stroke-linejoin="round"/><path d="M252.00184,123.34622c-0.36819,1.5591 -1.42077,2.37611 -2.35993,1.80284c-0.93916,-0.57327 -1.38925,-2.30751 -1.02106,-3.86661c0.36819,-1.5591 1.42076,-2.37611 2.35992,-1.80284c0.93916,0.57327 1.38925,2.30751 1.02106,3.86661" fill="#001026" fill-rule="evenodd" stroke-width="1" stroke-linecap="butt" stroke-linejoin="miter"/><path d="M250.6023,137.6578c-2.3865,0.87176 -4.63049,2.18048 -6.4976,1.72928c-0.94345,-0.22799 -5.74001,-0.49635 -5.74001,-3.78015c0,-1.50582 2.10652,-1.4816 5.15297,-2.13752c0.31849,-0.14709 0.67318,-0.22915 1.04703,-0.22915c0.16892,0 0.33393,0.01675 0.49345,0.04869c0.20877,0.0418 0.40814,0.1096 0.5946,0.19987c3.75292,-0.97878 6.5827,-1.5731 9.53951,-1.49569c0.24914,0.00652 -2.87848,5.03949 -4.58996,5.66467z" fill="#b67c00" fill-rule="nonzero" stroke-width="0" stroke-linecap="butt" stroke-linejoin="miter"/><path d="M233.55598,136.77815c0,0 2.50333,-1.02727 4.89796,-1.79409c1.8168,-0.58179 3.91641,-0.98634 5.68215,-1.31333c3.24024,-0.60004 9.57264,-1.44461 13.53347,-1.86442c1.90087,-0.20147 3.48642,-0.22814 3.48642,-0.22814" fill="#b67c00" fill-rule="nonzero" stroke-width="1.2" stroke-linecap="round" stroke-linejoin="miter"/><path d="M255.66156,152.98533l2.70238,8.64365" data-paper-data="{&quot;index&quot;:null}" fill="none" fill-rule="nonzero" stroke-width="1.2" stroke-linecap="round" stroke-linejoin="miter"/><path d="M257.51641,157.32232c0,0 1.92427,-1.28059 4.42187,-1.97465c2.76476,-0.7683 6.25373,-0.95706 9.08756,-0.94411c2.46115,0.01125 6.38896,0.15535 9.8489,0.84597c4.12281,0.82292 7.61361,2.21437 7.61361,2.21437" data-paper-data="{&quot;index&quot;:null}" fill="none" fill-rule="nonzero" stroke-width="1.2" stroke-linecap="round" stroke-linejoin="miter"/></g><g><path d="M415.29328,66.2705l-0.84895,32.7178c0,0 3.03326,7.91373 3.48026,12.16152c1.38346,13.14703 0.45532,18.84593 0.45532,18.84593c0,0 -15.02937,-0.28909 -22.13709,0.69303c-3.37082,0.46577 -9.7435,1.19892 -13.90515,2.12918c-4.94331,1.10498 -7.43479,2.38533 -7.43479,2.38533c0,0 2.8475,-1.42739 7.36576,-2.42549c7.28559,-1.60942 18.91532,-3.06273 29.95563,-2.8068c5.64336,0.13082 11.28879,0.23569 15.8969,1.77867c0.63221,0.21169 6.90766,1.99169 8.9234,6.25901c0.76035,1.60966 1.04343,6.08256 -1.6799,10.3625c-4.44591,6.98713 -12.57405,14.45907 -15.98477,15.53962c-6.85293,2.17106 -25.91449,2.44126 -25.91449,2.44126l-1.23313,5.47033l-6.59846,-5.34785l-3.60006,4.83946l-5.60678,-4.92594l-6.20903,6.2911c0,0 -4.62502,-4.73584 -6.72579,-6.03843c-1.33072,-0.82512 -4.66048,-1.02168 -4.66048,-1.02168l-10.13791,7.90449l-6.47029,-6.98757c0,0 -2.20261,1.27788 -3.50317,1.87088c-1.17881,0.53749 -3.97089,1.53699 -3.97089,1.53699l-2.16095,-8.42967c0,0 -1.3463,0.17108 -2.1342,0.27121c-0.97779,0.12425 -3.88682,1.01768 -3.88682,1.01768c0,0 1.42776,-5.16491 -0.95002,-6.40193c-2.37778,-1.23702 -6.0591,2.75549 -6.0591,2.75549c0,0 0.65763,-6.9589 0.93491,-9.20874c0.16039,-1.30145 0.57976,-3.08144 0.57976,-3.08144c0,0 -1.87679,0.10685 -2.77326,0.65735c-1.17204,0.71972 -3.45654,3.291 -3.45654,3.291c0,0 -0.06843,-4.06101 -0.01186,-5.80696c0.04647,-1.43428 0.32697,-3.9188 0.32697,-3.9188c0,0 -1.71624,0.68001 -2.48145,1.19162c-0.94076,0.62897 -2.74601,2.30336 -2.74601,2.30336c0,0 0.88531,-3.80851 1.51004,-5.4104c0.49912,-1.2798 1.94683,-3.45342 1.94683,-3.45342c0,0 -1.60996,-1.18997 -2.57578,-1.66388c-1.2415,-0.60917 -3.45603,-1.08833 -3.45603,-1.08833c0,0 2.1818,-2.57111 3.47876,-3.60245c1.08137,-0.8599 2.97447,-2.76529 2.97447,-2.76529c0,0 0.24999,-3.11872 0.89434,-6.01456c0.29819,-1.3401 0.83799,-2.63246 1.19409,-3.54593c3.1451,-8.06783 13.46656,-13.3276 12.95379,-12.64391l-10.62553,-30.49977l25.31452,14.72436c0,0 13.24703,-3.13879 22.54989,-3.0527c9.30285,0.08609 19.00211,2.59999 22.93958,3.28478z" fill="#b67c00" fill-rule="evenodd" stroke="#000000" stroke-width="1.2" stroke-linecap="butt" stroke-linejoin="miter"/><path d="M331.51825,100.64292l-6.85714,-19.28571l15,9.85714l-3.06833,1.12015l0.91286,4.43403l-4.5573,-0.96196z" fill="#ff5dfc" fill-rule="nonzero" stroke="#000000" stroke-width="1.2" stroke-linecap="butt" stroke-linejoin="miter"/><path d="M406.65958,91.66372l-4.98587,1.96196l-0.37285,-4.57689l-7.21119,1.16556l17.42857,-15.28572l-1.71429,22.14286z" data-paper-data="{&quot;index&quot;:null}" fill="#ff5dfc" fill-rule="nonzero" stroke="#000000" stroke-width="1.2" stroke-linecap="butt" stroke-linejoin="miter"/><path d="M437.02986,138.43102c0,0 -2.82804,0.6875 -6.625,0.6875c-3.79696,0 -5.75,-0.80945 -5.75,-3.8125c0,-3.00305 2.25,-3.8125 2.25,-3.8125c0,0 3.77418,1.02665 5.28557,1.96894c0.98348,0.61316 2.96661,1.90239 3.88754,3.06587c0.77359,0.97732 0.95189,1.9027 0.95189,1.9027z" fill="#000000" fill-rule="nonzero" stroke="#000000" stroke-width="1.2" stroke-linecap="butt" stroke-linejoin="miter"/><path d="M374.15183,121.45395c-0.18287,8.20869 -4.17697,14.76727 -8.95593,14.64011c-4.77896,-0.12716 -8.55175,-6.75414 -8.48771,-15.04896c0.18287,-8.20869 4.17697,-14.76728 8.95593,-14.64011c4.8596,0.00025 8.67058,6.84028 8.4877,15.04896z" fill="#ffffff" fill-rule="evenodd" stroke="#000000" stroke-width="1.2" stroke-linecap="round" stroke-linejoin="round"/><path d="M371.81867,121.69789c-0.36819,1.5591 -1.42076,2.37611 -2.35992,1.80284c-0.93916,-0.57327 -1.38925,-2.30751 -1.02106,-3.86661c0.36819,-1.5591 1.42077,-2.37611 2.35993,-1.80284c0.93916,0.57327 1.38925,2.30751 1.02106,3.86661" fill="#001026" fill-rule="evenodd" stroke="#000000" stroke-width="1" stroke-linecap="butt" stroke-linejoin="miter"/><path d="M395.15183,121.70395c-0.18288,8.20869 -4.17697,14.76727 -8.95593,14.64011c-4.77896,-0.12716 -8.55175,-6.75414 -8.48771,-15.04896c0.18287,-8.20869 4.17697,-14.76728 8.95593,-14.64011c4.8596,0.00025 8.67058,6.84028 8.48771,15.04896z" fill="#ffffff" fill-rule="evenodd" stroke="#000000" stroke-width="1.2" stroke-linecap="round" stroke-linejoin="round"/><path d="M392.81867,121.94789c-0.36819,1.5591 -1.42077,2.37611 -2.35993,1.80284c-0.93916,-0.57327 -1.38925,-2.30751 -1.02106,-3.86661c0.36819,-1.5591 1.42076,-2.37611 2.35992,-1.80284c0.93916,0.57327 1.38925,2.30751 1.02106,3.86661" fill="#001026" fill-rule="evenodd" stroke="#000000" stroke-width="1" stroke-linecap="butt" stroke-linejoin="miter"/><path d="M391.41913,136.25947c-2.3865,0.87176 -4.63049,2.18048 -6.4976,1.72928c-0.94345,-0.22799 -5.74001,-0.49635 -5.74001,-3.78015c0,-1.50582 2.10652,-1.4816 5.15297,-2.13752c0.31849,-0.14709 0.67318,-0.22915 1.04703,-0.22915c0.16892,0 0.33393,0.01675 0.49345,0.04869c0.20877,0.0418 0.40814,0.1096 0.5946,0.19987c3.75292,-0.97878 6.5827,-1.5731 9.53951,-1.49569c0.24914,0.00652 -2.87848,5.03949 -4.58996,5.66467z" fill="#b67c00" fill-rule="nonzero" stroke="#000000" stroke-width="0" stroke-linecap="butt" stroke-linejoin="miter"/><path d="M374.37281,135.37983c0,0 2.50333,-1.02727 4.89796,-1.79409c1.8168,-0.58179 3.91641,-0.98634 5.68215,-1.31333c3.24024,-0.60004 9.57264,-1.44461 13.53347,-1.86442c1.90087,-0.20147 3.48642,-0.22814 3.48642,-0.22814" fill="#b67c00" fill-rule="nonzero" stroke="#000000" stroke-width="1.2" stroke-linecap="round" stroke-linejoin="miter"/><path d="M396.47839,151.587l2.70238,8.64365" data-paper-data="{&quot;index&quot;:null}" fill="none" fill-rule="nonzero" stroke="#000000" stroke-width="1.2" stroke-linecap="round" stroke-linejoin="miter"/><path d="M429.30518,156.06558c0,0 -0.09149,0.13386 -0.57407,0.13165c-1.4576,-0.00666 -9.49081,-0.48306 -16.8058,-0.55046c-7.14486,-0.06583 -13.59206,0.27723 -13.59206,0.27723c0,0 -0.55091,0.09167 -0.06513,-0.32617c0.68297,-0.58746 2.62096,-2.46256 4.08045,-2.86814c2.76477,-0.7683 6.79581,-1.09258 9.62963,-1.07962c2.46115,0.01125 6.25344,-0.11568 9.71338,0.57494c4.12281,0.82292 7.61361,3.84057 7.61361,3.84057z" data-paper-data="{&quot;index&quot;:null}" fill="#000000" fill-rule="nonzero" stroke="#000000" stroke-width="1.2" stroke-linecap="round" stroke-linejoin="miter"/><g fill="url(#color-1)" fill-rule="nonzero" stroke="none" stroke-width="0" stroke-linecap="butt" stroke-linejoin="miter"><path d="M352.66141,135.45497c0,2.33316 -6.03205,4.22457 -13.47295,4.22457c-7.4409,0 -13.47294,-1.89141 -13.47294,-4.22457c0,-2.33316 6.03204,-4.22457 13.47294,-4.22457c7.4409,0 13.47295,1.89141 13.47295,4.22457z"/><path d="M352.66141,135.45497c0,2.33316 -6.03205,4.22457 -13.47295,4.22457c-7.4409,0 -13.47294,-1.89141 -13.47294,-4.22457c0,-2.33316 6.03204,-4.22457 13.47294,-4.22457c7.4409,0 13.47295,1.89141 13.47295,4.22457z"/><path d="M352.66141,135.45497c0,2.33316 -6.03205,4.22457 -13.47295,4.22457c-7.4409,0 -13.47294,-1.89141 -13.47294,-4.22457c0,-2.33316 6.03204,-4.22457 13.47294,-4.22457c7.4409,0 13.47295,1.89141 13.47295,4.22457z"/><path d="M352.66141,135.45497c0,2.33316 -6.03205,4.22457 -13.47295,4.22457c-7.4409,0 -13.47294,-1.89141 -13.47294,-4.22457c0,-2.33316 6.03204,-4.22457 13.47294,-4.22457c7.4409,0 13.47295,1.89141 13.47295,4.22457z"/></g></g><g><path d="M159.21303,253.82935c0,0 -2.82804,0.6875 -6.625,0.6875c-3.79696,0 -5.75,-0.80945 -5.75,-3.8125c0,-3.00305 2.25,-3.8125 2.25,-3.8125c0,0 3.77418,1.02665 5.28557,1.96894c0.98348,0.61316 2.96661,1.90239 3.88754,3.06587c0.77359,0.97732 0.95189,1.9027 0.95189,1.9027z" fill="#000000" fill-rule="nonzero" stroke="#000000" stroke-width="1.2" stroke-linecap="butt" stroke-linejoin="miter"/><g><path d="M137.47645,181.66883l-0.84895,32.7178c0,0 3.03326,7.91373 3.48026,12.16152c1.38346,13.14703 0.45532,18.84593 0.45532,18.84593c0,0 -15.02937,-0.28909 -22.13709,0.69303c-3.37082,0.46577 -9.7435,1.19892 -13.90515,2.12918c-4.94331,1.10498 -7.43479,2.38533 -7.43479,2.38533c0,0 2.8475,-1.42739 7.36576,-2.42549c7.28559,-1.60942 18.91532,-3.06273 29.95563,-2.8068c5.64336,0.13082 11.28879,0.23569 15.8969,1.77867c0.63221,0.21169 6.90766,1.99169 8.9234,6.25901c0.76035,1.60966 1.04343,6.08256 -1.6799,10.3625c-4.44591,6.98713 -12.57405,14.45907 -15.98477,15.53962c-6.85293,2.17106 -25.91449,2.44126 -25.91449,2.44126l-1.23313,5.47033l-6.59846,-5.34785l-3.60006,4.83946l-5.60678,-4.92594l-6.20903,6.2911c0,0 -4.62502,-4.73584 -6.72579,-6.03843c-1.33072,-0.82512 -4.66048,-1.02168 -4.66048,-1.02168l-10.13791,7.90449l-6.47029,-6.98757c0,0 -2.20261,1.27788 -3.50317,1.87088c-1.17881,0.53749 -3.97089,1.53699 -3.97089,1.53699l-2.16095,-8.42967c0,0 -1.3463,0.17108 -2.1342,0.27121c-0.97779,0.12425 -3.88682,1.01768 -3.88682,1.01768c0,0 1.42776,-5.16491 -0.95002,-6.40193c-2.37778,-1.23702 -6.0591,2.75549 -6.0591,2.75549c0,0 0.65763,-6.9589 0.93491,-9.20874c0.16039,-1.30145 0.57976,-3.08144 0.57976,-3.08144c0,0 -1.87679,0.10685 -2.77326,0.65735c-1.17204,0.71972 -3.45654,3.291 -3.45654,3.291c0,0 -0.06843,-4.06101 -0.01186,-5.80696c0.04647,-1.43428 0.32697,-3.9188 0.32697,-3.9188c0,0 -1.71624,0.68001 -2.48145,1.19162c-0.94076,0.62897 -2.74601,2.30336 -2.74601,2.30336c0,0 0.88531,-3.80851 1.51004,-5.4104c0.49912,-1.2798 1.94683,-3.45342 1.94683,-3.45342c0,0 -1.60996,-1.18997 -2.57578,-1.66388c-1.2415,-0.60917 -3.45603,-1.08833 -3.45603,-1.08833c0,0 2.1818,-2.57111 3.47876,-3.60245c1.08137,-0.8599 2.97447,-2.76529 2.97447,-2.76529c0,0 0.24999,-3.11872 0.89434,-6.01456c0.29819,-1.3401 0.83799,-2.63246 1.19409,-3.54593c3.1451,-8.06783 13.46656,-13.3276 12.95379,-12.64391l-10.62553,-30.49977l25.31452,14.72436c0,0 13.24703,-3.13879 22.54989,-3.0527c9.30285,0.08609 19.00211,2.59999 22.93958,3.28478z" fill="#b67c00" fill-rule="evenodd" stroke="#000000" stroke-width="1.2" stroke-linecap="butt" stroke-linejoin="miter"/><path d="M53.70142,216.04125l-6.85714,-19.28571l15,9.85714l-3.06833,1.12015l0.91286,4.43403l-4.5573,-0.96196z" fill="#ff5dfc" fill-rule="nonzero" stroke="#000000" stroke-width="1.2" stroke-linecap="butt" stroke-linejoin="miter"/><path d="M81.47656,293.56283v-45.79166h12.25v45.79166z" fill="url(#color-2)" fill-rule="nonzero" stroke="none" stroke-width="0" stroke-linecap="butt" stroke-linejoin="miter"/><path d="M128.84275,207.06205l-4.98587,1.96196l-0.37285,-4.57689l-7.21119,1.16556l17.42857,-15.28572l-1.71429,22.14286z" data-paper-data="{&quot;index&quot;:null}" fill="#ff5dfc" fill-rule="nonzero" stroke="#000000" stroke-width="1.2" stroke-linecap="butt" stroke-linejoin="miter"/><path d="M96.335,236.85228c-0.18287,8.20869 -4.17697,14.76727 -8.95593,14.64011c-4.77896,-0.12716 -8.55175,-6.75414 -8.48771,-15.04896c0.18287,-8.20869 4.17697,-14.76728 8.95593,-14.64011c4.8596,0.00025 8.67058,6.84028 8.4877,15.04896z" fill="#ffffff" fill-rule="evenodd" stroke="#000000" stroke-width="1.2" stroke-linecap="round" stroke-linejoin="round"/><path d="M94.00184,237.09622c-0.36819,1.5591 -1.42076,2.37611 -2.35992,1.80284c-0.93916,-0.57327 -1.38925,-2.30751 -1.02106,-3.86661c0.36819,-1.5591 1.42077,-2.37611 2.35993,-1.80284c0.93916,0.57327 1.38925,2.30751 1.02106,3.86661" fill="#001026" fill-rule="evenodd" stroke="#000000" stroke-width="1" stroke-linecap="butt" stroke-linejoin="miter"/><path d="M117.335,237.10228c-0.18288,8.20869 -4.17697,14.76727 -8.95593,14.64011c-4.77896,-0.12716 -8.55175,-6.75414 -8.48771,-15.04896c0.18287,-8.20869 4.17697,-14.76728 8.95593,-14.64011c4.8596,0.00025 8.67058,6.84028 8.48771,15.04896z" fill="#ffffff" fill-rule="evenodd" stroke="#000000" stroke-width="1.2" stroke-linecap="round" stroke-linejoin="round"/><path d="M115.00184,237.34622c-0.36819,1.5591 -1.42077,2.37611 -2.35993,1.80284c-0.93916,-0.57327 -1.38925,-2.30751 -1.02106,-3.86661c0.36819,-1.5591 1.42076,-2.37611 2.35992,-1.80284c0.93916,0.57327 1.38925,2.30751 1.02106,3.86661" fill="#001026" fill-rule="evenodd" stroke="#000000" stroke-width="1" stroke-linecap="butt" stroke-linejoin="miter"/><path d="M113.6023,251.6578c-2.3865,0.87176 -4.63049,2.18048 -6.4976,1.72928c-0.94345,-0.22799 -5.74001,-0.49635 -5.74001,-3.78015c0,-1.50582 2.10652,-1.4816 5.15297,-2.13752c0.31849,-0.14709 0.67318,-0.22915 1.04703,-0.22915c0.16892,0 0.33393,0.01675 0.49345,0.04869c0.20877,0.0418 0.40814,0.1096 0.5946,0.19987c3.75292,-0.97878 6.5827,-1.5731 9.53951,-1.49569c0.24914,0.00652 -2.87848,5.03949 -4.58996,5.66467z" fill="#b67c00" fill-rule="nonzero" stroke="#000000" stroke-width="0" stroke-linecap="butt" stroke-linejoin="miter"/><path d="M96.55598,250.77816c0,0 2.50333,-1.02727 4.89796,-1.79409c1.8168,-0.58179 3.91641,-0.98634 5.68215,-1.31333c3.24024,-0.60004 9.57264,-1.44461 13.53347,-1.86442c1.90087,-0.20147 3.48642,-0.22814 3.48642,-0.22814" fill="#b67c00" fill-rule="nonzero" stroke="#000000" stroke-width="1.2" stroke-linecap="round" stroke-linejoin="miter"/><path d="M121.36394,275.62898l-2.70238,-8.64365" data-paper-data="{&quot;index&quot;:null}" fill="none" fill-rule="nonzero" stroke="#000000" stroke-width="1.2" stroke-linecap="round" stroke-linejoin="miter"/><path d="M120.51641,271.32232c0,0 1.92427,-1.28059 4.42187,-1.97465c2.76476,-0.7683 6.25373,-0.95706 9.08756,-0.94411c2.46115,0.01125 6.38896,0.15535 9.8489,0.84597c4.12281,0.82292 7.61361,2.21437 7.61361,2.21437" data-paper-data="{&quot;index&quot;:null}" fill="none" fill-rule="nonzero" stroke="#000000" stroke-width="1.2" stroke-linecap="round" stroke-linejoin="miter"/><path d="M81.97656,221.9795c0,-1.38071 1.11929,-2.5 2.5,-2.5c1.38071,0 8.625,2.625 8.625,2.625l-15,8.125c0,0 3.875,-6.86929 3.875,-8.25z" fill="#b67c00" fill-rule="nonzero" stroke="none" stroke-width="0.5" stroke-linecap="butt" stroke-linejoin="miter"/><path d="M118.72656,229.7295l-15,-8.125c0,0 7.24429,-2.625 8.625,-2.625c1.38071,0 2.5,1.11929 2.5,2.5c0,1.38071 3.875,8.25 3.875,8.25z" data-paper-data="{&quot;index&quot;:null}" fill="#b67c00" fill-rule="nonzero" stroke="none" stroke-width="0.5" stroke-linecap="butt" stroke-linejoin="miter"/><path d="M77.94543,231.02152l17.125,-9.75l3.625,5.75l2.75,-6l17,9.125" data-paper-data="{&quot;index&quot;:null}" fill="none" fill-rule="nonzero" stroke="#000000" stroke-width="1.2" stroke-linecap="round" stroke-linejoin="miter"/><path d="M103.64322,293.7295v-46.12499c0,0 4.74389,-0.97537 6.74519,-1.24622c1.60497,-0.21722 4.33814,-0.42045 4.33814,-0.42045l1.16667,47.79166z" fill="url(#color-3)" fill-rule="nonzero" stroke="none" stroke-width="0" stroke-linecap="butt" stroke-linejoin="miter"/></g></g><g stroke="#000000"><path d="M282.83213,181.91969l-0.84895,32.7178c0,0 3.03326,7.91373 3.48026,12.16152c1.38346,13.14703 0.45532,18.84593 0.45532,18.84593c0,0 -15.02937,-0.28909 -22.13709,0.69303c-3.37082,0.46577 -9.7435,1.19892 -13.90515,2.12918c-4.94331,1.10498 -7.43479,2.38533 -7.43479,2.38533c0,0 2.8475,-1.42739 7.36576,-2.42549c7.28559,-1.60942 18.91532,-3.06273 29.95563,-2.8068c5.64336,0.13082 11.28879,0.23569 15.8969,1.77867c0.63221,0.21169 6.90766,1.99169 8.9234,6.25901c0.76035,1.60966 1.04343,6.08256 -1.6799,10.3625c-4.44591,6.98713 -12.57405,14.45907 -15.98477,15.53962c-6.85293,2.17106 -25.91449,2.44126 -25.91449,2.44126l-1.23313,5.47033l-6.59846,-5.34785l-3.60006,4.83946l-5.60678,-4.92594l-6.20903,6.2911c0,0 -4.62502,-4.73584 -6.72579,-6.03843c-1.33072,-0.82512 -4.66048,-1.02168 -4.66048,-1.02168l-10.13791,7.90449l-6.47029,-6.98757c0,0 -2.20261,1.27788 -3.50317,1.87088c-1.17881,0.53749 -3.97089,1.53699 -3.97089,1.53699l-2.16095,-8.42967c0,0 -1.3463,0.17108 -2.1342,0.27121c-0.97779,0.12425 -3.88682,1.01768 -3.88682,1.01768c0,0 1.42776,-5.16491 -0.95002,-6.40193c-2.37778,-1.23702 -6.0591,2.75549 -6.0591,2.75549c0,0 0.65763,-6.9589 0.93491,-9.20874c0.16039,-1.30145 0.57976,-3.08144 0.57976,-3.08144c0,0 -1.87679,0.10685 -2.77326,0.65735c-1.17204,0.71972 -3.45654,3.291 -3.45654,3.291c0,0 -0.06843,-4.06101 -0.01186,-5.80696c0.04647,-1.43428 0.32697,-3.9188 0.32697,-3.9188c0,0 -1.71624,0.68001 -2.48145,1.19162c-0.94076,0.62897 -2.74601,2.30336 -2.74601,2.30336c0,0 0.88531,-3.80851 1.51004,-5.4104c0.49912,-1.2798 1.94683,-3.45342 1.94683,-3.45342c0,0 -1.60996,-1.18997 -2.57578,-1.66388c-1.2415,-0.60917 -3.45603,-1.08833 -3.45603,-1.08833c0,0 2.1818,-2.57111 3.47876,-3.60245c1.08137,-0.8599 2.97447,-2.76529 2.97447,-2.76529c0,0 0.24999,-3.11872 0.89434,-6.01456c0.29819,-1.3401 0.83799,-2.63246 1.19409,-3.54593c3.1451,-8.06783 13.46656,-13.3276 12.95379,-12.64391l-10.62553,-30.49977l25.31452,14.72436c0,0 13.24703,-3.13879 22.54989,-3.0527c9.30285,0.08609 19.00211,2.59999 22.93958,3.28478z" fill="#b67c00" fill-rule="evenodd" stroke-width="1.2" stroke-linecap="butt" stroke-linejoin="miter"/><path d="M199.0571,216.29211l-6.85714,-19.28571l15,9.85714l-3.06833,1.12015l0.91286,4.43403l-4.5573,-0.96196z" fill="#ff5dfc" fill-rule="nonzero" stroke-width="1.2" stroke-linecap="butt" stroke-linejoin="miter"/><path d="M274.19843,207.31291l-4.98587,1.96196l-0.37285,-4.57689l-7.21119,1.16556l17.42857,-15.28572l-1.71429,22.14286z" data-paper-data="{&quot;index&quot;:null}" fill="#ff5dfc" fill-rule="nonzero" stroke-width="1.2" stroke-linecap="butt" stroke-linejoin="miter"/><path d="M304.56871,254.08021c0,0 -2.82804,0.6875 -6.625,0.6875c-3.79696,0 -5.75,-0.80945 -5.75,-3.8125c0,-3.00305 2.25,-3.8125 2.25,-3.8125c0,0 3.77418,1.02665 5.28557,1.96894c0.98348,0.61316 2.96661,1.90239 3.88754,3.06587c0.77359,0.97732 0.95189,1.9027 0.95189,1.9027z" fill="#000000" fill-rule="nonzero" stroke-width="1.2" stroke-linecap="butt" stroke-linejoin="miter"/><path d="M268.69371,260.76771l-4,8.125" fill="none" fill-rule="nonzero" stroke-width="1.2" stroke-linecap="round" stroke-linejoin="miter"/><path d="M297.81871,269.51771c0,0 -3.66331,0.83784 -7.86364,1.01669c-3.525,0.1501 -7.42822,-0.31179 -9.8618,-0.67931c-2.80208,-0.42317 -6.22047,-1.14645 -8.83412,-2.33095c-2.36109,-1.07004 -4.06544,-2.63143 -4.06544,-2.63143" fill="none" fill-rule="nonzero" stroke-width="1.2" stroke-linecap="round" stroke-linejoin="miter"/><path d="M241.69068,237.10314c-0.18287,8.20869 -4.17697,14.76727 -8.95593,14.64011c-4.77896,-0.12716 -8.55175,-6.75414 -8.48771,-15.04896c0.18287,-8.20869 4.17697,-14.76728 8.95593,-14.64011c4.8596,0.00025 8.67058,6.84028 8.4877,15.04896z" fill="#ffffff" fill-rule="evenodd" stroke-width="1.2" stroke-linecap="round" stroke-linejoin="round"/><path d="M239.35752,237.34708c-0.36819,1.5591 -1.42076,2.37611 -2.35992,1.80284c-0.93916,-0.57327 -1.38925,-2.30751 -1.02106,-3.86661c0.36819,-1.5591 1.42077,-2.37611 2.35993,-1.80284c0.93916,0.57327 1.38925,2.30751 1.02106,3.86661" fill="#001026" fill-rule="evenodd" stroke-width="1" stroke-linecap="butt" stroke-linejoin="miter"/><path d="M262.69068,237.35314c-0.18288,8.20869 -4.17697,14.76727 -8.95593,14.64011c-4.77896,-0.12716 -8.55175,-6.75414 -8.48771,-15.04896c0.18287,-8.20869 4.17697,-14.76728 8.95593,-14.64011c4.8596,0.00025 8.67058,6.84028 8.48771,15.04896z" fill="#ffffff" fill-rule="evenodd" stroke-width="1.2" stroke-linecap="round" stroke-linejoin="round"/><path d="M260.35752,237.59708c-0.36819,1.5591 -1.42077,2.37611 -2.35993,1.80284c-0.93916,-0.57327 -1.38925,-2.30751 -1.02106,-3.86661c0.36819,-1.5591 1.42076,-2.37611 2.35992,-1.80284c0.93916,0.57327 1.38925,2.30751 1.02106,3.86661" fill="#001026" fill-rule="evenodd" stroke-width="1" stroke-linecap="butt" stroke-linejoin="miter"/><path d="M258.95798,251.90866c-2.3865,0.87176 -4.63049,2.18048 -6.4976,1.72928c-0.94345,-0.22799 -5.74001,-0.49635 -5.74001,-3.78015c0,-1.50582 2.10652,-1.4816 5.15297,-2.13752c0.31849,-0.14709 0.67318,-0.22915 1.04703,-0.22915c0.16892,0 0.33393,0.01675 0.49345,0.04869c0.20877,0.0418 0.40814,0.1096 0.5946,0.19987c3.75292,-0.97878 6.5827,-1.5731 9.53951,-1.49569c0.24914,0.00652 -2.87848,5.03949 -4.58996,5.66467z" fill="#b67c00" fill-rule="nonzero" stroke-width="0" stroke-linecap="butt" stroke-linejoin="miter"/><path d="M241.91166,251.02902c0,0 2.50333,-1.02727 4.89796,-1.79409c1.8168,-0.58179 3.91641,-0.98634 5.68215,-1.31333c3.24024,-0.60004 9.57264,-1.44461 13.53347,-1.86442c1.90087,-0.20147 3.48642,-0.22814 3.48642,-0.22814" fill="#b67c00" fill-rule="nonzero" stroke-width="1.2" stroke-linecap="round" stroke-linejoin="miter"/></g><g><path d="M429.83213,183.51969l-0.84895,32.7178c0,0 3.03326,7.91373 3.48026,12.16152c1.38346,13.14703 0.45532,18.84593 0.45532,18.84593c0,0 -15.02937,-0.28909 -22.13709,0.69303c-3.37082,0.46577 -9.7435,1.19892 -13.90515,2.12918c-4.94331,1.10498 -7.43479,2.38533 -7.43479,2.38533c0,0 2.8475,-1.42739 7.36576,-2.42549c7.28559,-1.60942 18.91532,-3.06273 29.95563,-2.8068c5.64336,0.13082 11.28879,0.23569 15.8969,1.77867c0.63221,0.21169 6.90766,1.99169 8.9234,6.25901c0.76035,1.60966 1.04343,6.08256 -1.6799,10.3625c-4.44591,6.98713 -12.57405,14.45907 -15.98477,15.53962c-6.85293,2.17106 -25.91449,2.44126 -25.91449,2.44126l-1.23313,5.47033l-6.59846,-5.34785l-3.60006,4.83946l-5.60678,-4.92594l-6.20903,6.2911c0,0 -4.62502,-4.73584 -6.72579,-6.03843c-1.33072,-0.82512 -4.66048,-1.02168 -4.66048,-1.02168l-10.13791,7.90449l-6.47029,-6.98757c0,0 -2.20261,1.27788 -3.50317,1.87088c-1.17881,0.53749 -3.97089,1.53699 -3.97089,1.53699l-2.16095,-8.42967c0,0 -1.3463,0.17108 -2.1342,0.27121c-0.97779,0.12425 -3.88682,1.01768 -3.88682,1.01768c0,0 1.42776,-5.16491 -0.95002,-6.40193c-2.37778,-1.23702 -6.0591,2.75549 -6.0591,2.75549c0,0 0.65763,-6.9589 0.93491,-9.20874c0.16039,-1.30145 0.57976,-3.08144 0.57976,-3.08144c0,0 -1.87679,0.10685 -2.77326,0.65735c-1.17204,0.71972 -3.45654,3.291 -3.45654,3.291c0,0 -0.06843,-4.06101 -0.01186,-5.80696c0.04647,-1.43428 0.32697,-3.9188 0.32697,-3.9188c0,0 -1.71624,0.68001 -2.48145,1.19162c-0.94076,0.62897 -2.74601,2.30336 -2.74601,2.30336c0,0 0.88531,-3.80851 1.51004,-5.4104c0.49912,-1.2798 1.94683,-3.45342 1.94683,-3.45342c0,0 -1.60996,-1.18997 -2.57578,-1.66388c-1.2415,-0.60917 -3.45603,-1.08833 -3.45603,-1.08833c0,0 2.1818,-2.57111 3.47876,-3.60245c1.08137,-0.8599 2.97447,-2.76529 2.97447,-2.76529c0,0 0.24999,-3.11872 0.89434,-6.01456c0.29819,-1.3401 0.83799,-2.63246 1.19409,-3.54593c3.1451,-8.06783 13.46656,-13.3276 12.95379,-12.64391l-10.62553,-30.49977l25.31452,14.72436c0,0 13.24703,-3.13879 22.54989,-3.0527c9.30285,0.08609 19.00211,2.59999 22.93958,3.28478z" fill="#b67c00" fill-rule="evenodd" stroke="#000000" stroke-width="1.2" stroke-linecap="butt" stroke-linejoin="miter"/><path d="M346.0571,217.89211l-6.85714,-19.28571l15,9.85714l-3.06833,1.12015l0.91286,4.43403l-4.5573,-0.96196z" fill="#ff5dfc" fill-rule="nonzero" stroke="#000000" stroke-width="1.2" stroke-linecap="butt" stroke-linejoin="miter"/><path d="M421.19843,208.91291l-4.98587,1.96196l-0.37285,-4.57689l-7.21119,1.16556l17.42857,-15.28572l-1.71429,22.14286z" data-paper-data="{&quot;index&quot;:null}" fill="#ff5dfc" fill-rule="nonzero" stroke="#000000" stroke-width="1.2" stroke-linecap="butt" stroke-linejoin="miter"/><path d="M451.56871,255.68021c0,0 -2.82804,0.6875 -6.625,0.6875c-3.79696,0 -5.75,-0.80945 -5.75,-3.8125c0,-3.00305 2.25,-3.8125 2.25,-3.8125c0,0 3.77418,1.02665 5.28557,1.96894c0.98348,0.61316 2.96661,1.90239 3.88754,3.06587c0.77359,0.97732 0.95189,1.9027 0.95189,1.9027z" fill="#000000" fill-rule="nonzero" stroke="#000000" stroke-width="1.2" stroke-linecap="butt" stroke-linejoin="miter"/><path d="M412.69371,271.99271l2.93333,-5.95833" fill="none" fill-rule="nonzero" stroke="#000000" stroke-width="1.2" stroke-linecap="round" stroke-linejoin="miter"/><path d="M445.31871,271.60948c0,0 -4.16331,0.44385 -8.36364,0.53859c-3.525,0.07952 -7.42822,-0.16517 -9.8618,-0.35987c-2.80208,-0.22418 -6.22047,-0.60733 -8.83412,-1.23483c-2.36109,-0.56686 -4.06544,-1.39401 -4.06544,-1.39401" fill="none" fill-rule="nonzero" stroke="#000000" stroke-width="1.2" stroke-linecap="round" stroke-linejoin="miter"/><path d="M388.69068,238.70314c-0.18287,8.20869 -4.17697,14.76727 -8.95593,14.64011c-4.77896,-0.12716 -8.55175,-6.75414 -8.48771,-15.04896c0.18287,-8.20869 4.17697,-14.76728 8.95593,-14.64011c4.8596,0.00025 8.67058,6.84028 8.4877,15.04896z" fill="#ffffff" fill-rule="evenodd" stroke="#000000" stroke-width="1.2" stroke-linecap="round" stroke-linejoin="round"/><path d="M386.35752,238.94708c-0.36819,1.5591 -1.42076,2.37611 -2.35992,1.80284c-0.93916,-0.57327 -1.38925,-2.30751 -1.02106,-3.86661c0.36819,-1.5591 1.42077,-2.37611 2.35993,-1.80284c0.93916,0.57327 1.38925,2.30751 1.02106,3.86661" fill="#001026" fill-rule="evenodd" stroke="#000000" stroke-width="1" stroke-linecap="butt" stroke-linejoin="miter"/><path d="M409.69068,238.95314c-0.18288,8.20869 -4.17697,14.76727 -8.95593,14.64011c-4.77896,-0.12716 -8.55175,-6.75414 -8.48771,-15.04896c0.18287,-8.20869 4.17697,-14.76728 8.95593,-14.64011c4.8596,0.00025 8.67058,6.84028 8.48771,15.04896z" fill="#ffffff" fill-rule="evenodd" stroke="#000000" stroke-width="1.2" stroke-linecap="round" stroke-linejoin="round"/><path d="M407.35752,239.19708c-0.36819,1.5591 -1.42077,2.37611 -2.35993,1.80284c-0.93916,-0.57327 -1.38925,-2.30751 -1.02106,-3.86661c0.36819,-1.5591 1.42076,-2.37611 2.35992,-1.80284c0.93916,0.57327 1.38925,2.30751 1.02106,3.86661" fill="#001026" fill-rule="evenodd" stroke="#000000" stroke-width="1" stroke-linecap="butt" stroke-linejoin="miter"/><path d="M405.95798,253.50866c-2.3865,0.87176 -4.63049,2.18048 -6.4976,1.72928c-0.94345,-0.22799 -5.74001,-0.49635 -5.74001,-3.78015c0,-1.50582 2.10652,-1.4816 5.15297,-2.13752c0.31849,-0.14709 0.67318,-0.22915 1.04703,-0.22915c0.16892,0 0.33393,0.01675 0.49345,0.04869c0.20877,0.0418 0.40814,0.1096 0.5946,0.19987c3.75292,-0.97878 6.5827,-1.5731 9.53951,-1.49569c0.24914,0.00652 -2.87848,5.03949 -4.58996,5.66467z" fill="#b67c00" fill-rule="nonzero" stroke="#000000" stroke-width="0" stroke-linecap="butt" stroke-linejoin="miter"/><path d="M388.91166,252.62902c0,0 2.50333,-1.02727 4.89796,-1.79409c1.8168,-0.58179 3.91641,-0.98634 5.68215,-1.31333c3.24024,-0.60004 9.57264,-1.44461 13.53347,-1.86442c1.90087,-0.20147 3.48642,-0.22814 3.48642,-0.22814" fill="#b67c00" fill-rule="nonzero" stroke="#000000" stroke-width="1.2" stroke-linecap="round" stroke-linejoin="miter"/><g fill="#b67c00" fill-rule="nonzero" stroke-linejoin="miter"><path d="M370.04343,227.4751c0,-1.11976 13.03905,-6.76666 13.3,-6.76666c1.38071,0 4.5,7.76666 4.5,7.76666l-16.9,6.1c0,0 -0.9,-5.71929 -0.9,-7.1z" stroke="none" stroke-width="0.5" stroke-linecap="butt"/><path d="M369.74543,235.46318l19.8,-7.325" stroke="#000000" stroke-width="1.2" stroke-linecap="round"/></g><g fill="url(#color-4)" fill-rule="nonzero" stroke="none" stroke-width="0" stroke-linecap="butt" stroke-linejoin="miter"><path d="M368.66141,254.45497c0,2.33316 -6.03205,4.22457 -13.47295,4.22457c-7.4409,0 -13.47294,-1.89141 -13.47294,-4.22457c0,-2.33317 6.03204,-4.22457 13.47294,-4.22457c7.4409,0 13.47295,1.89141 13.47295,4.22457z"/><path d="M368.66141,254.45497c0,2.33316 -6.03205,4.22457 -13.47295,4.22457c-7.4409,0 -13.47294,-1.89141 -13.47294,-4.22457c0,-2.33317 6.03204,-4.22457 13.47294,-4.22457c7.4409,0 13.47295,1.89141 13.47295,4.22457z"/><path d="M368.66141,254.45497c0,2.33316 -6.03205,4.22457 -13.47295,4.22457c-7.4409,0 -13.47294,-1.89141 -13.47294,-4.22457c0,-2.33317 6.03204,-4.22457 13.47294,-4.22457c7.4409,0 13.47295,1.89141 13.47295,4.22457z"/><path d="M368.66141,254.45497c0,2.33316 -6.03205,4.22457 -13.47295,4.22457c-7.4409,0 -13.47294,-1.89141 -13.47294,-4.22457c0,-2.33317 6.03204,-4.22457 13.47294,-4.22457c7.4409,0 13.47295,1.89141 13.47295,4.22457z"/></g></g></g></g></svg>